# Blender v2.69 (sub 0) OBJ File: 'obstaclesandstuff.blend'
# www.blender.org
mtllib obstacle_mountain_1.mtl
o Cube.004
v 1.698819 0.000000 2.036847
v 1.698819 0.000000 5.330842
v -1.595176 0.000000 5.330841
v -1.595175 0.000000 2.036846
v 0.051821 8.843084 3.683845
v 1.278842 0.000000 4.358418
v 10.046223 0.000000 4.358419
v 10.046223 0.000000 -4.408960
v 1.278844 0.000000 -4.408961
v 5.662531 17.390135 -0.025270
v -6.655907 0.000000 1.637957
v 2.108382 0.000000 1.637958
v 2.108382 0.000000 -7.126330
v -6.655905 0.000000 -7.126331
v -2.273763 25.648932 -2.744185
v -0.900829 0.000000 0.659354
v 5.318377 0.000000 0.659354
v 5.318377 0.000000 -5.559852
v -0.900827 0.000000 -5.559853
v 2.208774 24.324408 -2.450248
v -2.753737 0.000000 -1.359767
v -2.753737 0.000000 4.431494
v -8.544997 0.000000 4.431493
v -8.544996 0.000000 -1.359768
v -5.649367 18.211798 1.535864
vt 0.465364 0.552468
vt 0.391639 0.552468
vt 0.465364 0.478743
vt 0.239247 0.239247
vt 0.000250 0.000250
vt 0.478243 0.000250
vt 0.677193 0.198700
vt 0.478743 0.000250
vt 0.875642 0.000250
vt 0.875643 0.397149
vt 0.478743 0.397149
vt 0.674971 0.725248
vt 0.674971 0.921475
vt 0.478743 0.725248
vt 0.806342 0.397649
vt 0.892489 0.483796
vt 0.806342 0.569944
vt 0.978636 0.569944
vt 0.978636 0.397649
vt 0.478243 0.478243
vt 0.000250 0.478243
vt 0.871629 0.921406
vt 0.675471 0.921406
vt 0.871629 0.725248
vt 0.195695 0.674188
vt 0.000250 0.478743
vt 0.391139 0.478743
vt 0.391139 0.869632
vt 0.000250 0.869633
vt 0.945537 0.724748
vt 0.806342 0.724748
vt 0.945537 0.585552
vt 0.129867 0.999750
vt 0.000250 0.999750
vt 0.129867 0.870133
vt 0.805842 0.397649
vt 0.642293 0.561199
vt 0.478743 0.397649
vt 0.478743 0.724748
vt 0.805842 0.724748
vt 0.391639 0.478743
vt 0.478743 0.921475
vt 0.675471 0.725248
vt 0.806342 0.585552
vt 0.000250 0.870133
vn 0.000000 -1.000000 0.000000
vn 0.000000 0.168411 -0.985717
vn 0.000000 0.244433 -0.969666
vn -0.969666 0.244432 -0.000000
vn -0.000000 0.244433 0.969666
vn 0.969666 0.244433 0.000000
vn 0.983095 0.183098 0.000000
vn -0.000001 0.183098 0.983095
vn -0.983095 0.183098 -0.000000
vn 0.000000 0.183098 -0.983095
vn -0.985717 0.168411 -0.000000
vn -0.000000 0.168411 0.985717
vn 0.985717 0.168411 0.000000
vn 0.000000 0.126807 -0.991927
vn -0.991927 0.126807 -0.000000
vn -0.000000 0.126807 0.991928
vn 0.991928 0.126807 0.000000
vn 0.987595 0.157025 0.000000
vn -0.000000 0.157025 0.987595
vn -0.987595 0.157025 -0.000000
vn 0.000000 0.157025 -0.987595
usemtl Material
s off
f 1/1/1 2/2/1 4/3/1
f 15/4/2 13/5/2 14/6/2
f 10/7/3 8/8/3 9/9/3
f 6/10/4 10/7/4 9/9/4
f 7/11/5 10/7/5 6/10/5
f 8/8/6 10/7/6 7/11/6
f 8/12/1 7/13/1 9/14/1
f 1/15/7 5/16/7 2/17/7
f 2/17/8 5/16/8 3/18/8
f 3/18/9 5/16/9 4/19/9
f 5/16/10 1/15/10 4/19/10
f 11/20/11 15/4/11 14/6/11
f 12/21/12 15/4/12 11/20/12
f 13/5/13 15/4/13 12/21/13
f 13/22/1 12/23/1 14/24/1
f 20/25/14 18/26/14 19/27/14
f 16/28/15 20/25/15 19/27/15
f 17/29/16 20/25/16 16/28/16
f 18/26/17 20/25/17 17/29/17
f 18/30/1 17/31/1 19/32/1
f 21/33/1 22/34/1 24/35/1
f 21/36/18 25/37/18 22/38/18
f 22/38/19 25/37/19 23/39/19
f 23/39/20 25/37/20 24/40/20
f 25/37/21 21/36/21 24/40/21
f 2/2/1 3/41/1 4/3/1
f 7/13/1 6/42/1 9/14/1
f 12/23/1 11/43/1 14/24/1
f 17/31/1 16/44/1 19/32/1
f 22/34/1 23/45/1 24/35/1
