# Blender v2.69 (sub 0) OBJ File: 'obstaclesandstuff.blend'
# www.blender.org
mtllib obstacle_mountain_2.mtl
o Cube.011_Cube.026
v -3.450152 0.000000 3.450150
v 3.450150 0.000000 3.450151
v 3.450150 0.000000 -3.450150
v -3.450150 0.000000 -3.450152
v -0.000001 15.531238 0.000001
vt 0.341102 0.341102
vt 0.682105 0.000100
vt 0.682105 0.682105
vt 0.000100 0.682105
vt 0.000100 0.000100
vt 0.999900 0.317695
vt 0.682305 0.317695
vt 0.999900 0.000100
vt 0.682305 0.000100
vn 0.000000 0.216857 -0.976204
vn -0.976204 0.216856 -0.000000
vn -0.000000 0.216856 0.976204
vn 0.976204 0.216856 0.000000
vn 0.000000 -1.000000 0.000000
usemtl Material
s off
f 5/1/1 3/2/1 4/3/1
f 1/4/2 5/1/2 4/3/2
f 2/5/3 5/1/3 1/4/3
f 3/2/4 5/1/4 2/5/4
f 3/6/5 2/7/5 4/8/5
f 2/7/5 1/9/5 4/8/5
